<svg xmlns:dc="http://purl.org/dc/elements/1.1/" xmlns:cc="http://creativecommons.org/ns#" xmlns:rdf="http://www.w3.org/1999/02/22-rdf-syntax-ns#" xmlns:svg="http://www.w3.org/2000/svg" xmlns="http://www.w3.org/2000/svg" xmlns:sodipodi="http://sodipodi.sourceforge.net/DTD/sodipodi-0.dtd" xmlns:inkscape="http://www.inkscape.org/namespaces/inkscape" viewBox="0 0 100 125" version="1.1" x="0px" y="0px"><g transform="translate(0,-952.36216)"><path style="font-size:medium;font-style:normal;font-variant:normal;font-weight:normal;font-stretch:normal;text-indent:0;text-align:start;text-decoration:none;line-height:normal;letter-spacing:normal;word-spacing:normal;text-transform:none;direction:ltr;block-progression:tb;writing-mode:lr-tb;text-anchor:start;baseline-shift:baseline;opacity:1;color:#000000;fill:#000000;fill-opacity:1;stroke:none;stroke-width:6;marker:none;visibility:visible;display:inline;overflow:visible;enable-background:accumulate;font-family:Sans;-inkscape-font-specification:Sans" d="M 50 5 C 25.182718 5 5 25.18268 5 50 C 5 74.8172 25.182713 95 50 95 C 74.817287 95 95 74.8172 95 50 C 95 25.18268 74.817282 5 50 5 z M 50 11 C 71.574642 11 89 28.42532 89 50 C 89 71.5746 71.574637 89 50 89 C 28.425363 89 11 71.5746 11 50 C 11 28.42532 28.425358 11 50 11 z M 50 21 C 42.303559 21 36 27.30357 36 35 C 36 39.601252 38.262065 43.724966 41.71875 46.28125 C 37.702407 47.525565 33.998967 49.638612 30.96875 52.53125 C 25.93867 57.33305 23.008407 64.0257 23 70.875 C 22.99992 70.885 23.000067 70.89625 23 70.90625 C 22.9974 71.30925 23.01428 71.7223 23.03125 72.125 A 3.0003 3.0003 0 0 0 26.03125 75 L 73.96875 75 A 3.0003 3.0003 0 0 0 76.96875 72.125 C 76.98572 71.7223 77.00261 71.30925 77 70.90625 C 77.000001 70.89625 77.000013 70.885 77 70.875 C 76.9916 64.0257 74.061331 57.33305 69.03125 52.53125 C 66.001033 49.638612 62.297592 47.525565 58.28125 46.28125 C 61.737936 43.724966 64 39.601252 64 35 C 64 27.30357 57.696428 21 50 21 z M 50 27 C 54.45383 27 58 30.54623 58 35 C 58 39.45375 54.453756 43 50 43 C 45.546221 43 42 39.45375 42 35 C 42 30.54623 45.546147 27 50 27 z M 50 51 C 55.497307 51 61.058374 53.2018 64.90625 56.875 C 68.277418 60.0931 70.33255 64.5044 70.8125 69 L 29.1875 69 C 29.66745 64.5044 31.722583 60.0931 35.09375 56.875 C 38.941625 53.2018 44.502694 51 50 51 z " transform="translate(0,952.36216)"/></g><text x="0" y="115" fill="#000000" font-size="5px" font-weight="bold" font-family="'Helvetica Neue', Helvetica, Arial-Unicode, Arial, Sans-serif">Created by cathy moser</text><text x="0" y="120" fill="#000000" font-size="5px" font-weight="bold" font-family="'Helvetica Neue', Helvetica, Arial-Unicode, Arial, Sans-serif">from the Noun Project</text></svg>