<svg xmlns="http://www.w3.org/2000/svg" xmlns:xlink="http://www.w3.org/1999/xlink" version="1.1" x="0px" y="0px" viewBox="0 0 100 100" enable-background="new 0 0 100 100" xml:space="preserve"><path d="M100,0v4.927c-2.721,0-4.928-2.206-4.928-4.927H100z M0,4.927c2.721,0,4.928-2.206,4.928-4.927H0V4.927z M50,4.927  c2.721,0,4.928-2.206,4.928-4.927h-9.855C45.072,2.721,47.279,4.927,50,4.927z M25,4.927c2.721,0,4.928-2.206,4.928-4.927h-9.855  C20.072,2.721,22.279,4.927,25,4.927z M75,4.927c2.721,0,4.928-2.206,4.928-4.927h-9.855C70.072,2.721,72.279,4.927,75,4.927z   M95.072,100H100v-4.928C97.279,95.072,95.072,97.279,95.072,100z M0,95.072V100h4.928C4.928,97.279,2.721,95.072,0,95.072z   M50,95.072c-2.721,0-4.928,2.207-4.928,4.928h9.855C54.928,97.279,52.721,95.072,50,95.072z M25,95.072  c-2.721,0-4.928,2.207-4.928,4.928h9.855C29.928,97.279,27.721,95.072,25,95.072z M75,95.072c-2.721,0-4.928,2.207-4.928,4.928  h9.855C79.928,97.279,77.721,95.072,75,95.072z M12.5,70.072c-2.721,0-4.928,2.207-4.928,4.928s2.207,4.928,4.928,4.928  s4.928-2.207,4.928-4.928S15.221,70.072,12.5,70.072z M62.5,70.072c-2.721,0-4.928,2.207-4.928,4.928s2.207,4.928,4.928,4.928  s4.928-2.207,4.928-4.928S65.221,70.072,62.5,70.072z M37.5,70.072c-2.721,0-4.928,2.207-4.928,4.928s2.207,4.928,4.928,4.928  s4.928-2.207,4.928-4.928S40.221,70.072,37.5,70.072z M87.5,70.072c-2.721,0-4.928,2.207-4.928,4.928s2.207,4.928,4.928,4.928  s4.928-2.207,4.928-4.928S90.221,70.072,87.5,70.072z M95.072,50c0,2.721,2.207,4.928,4.928,4.928v-9.855  C97.279,45.072,95.072,47.279,95.072,50z M0,45.072v9.855c2.721,0,4.928-2.207,4.928-4.928S2.721,45.072,0,45.072z M50,45.072  c-2.721,0-4.928,2.207-4.928,4.928s2.207,4.928,4.928,4.928s4.928-2.207,4.928-4.928S52.721,45.072,50,45.072z M25,45.072  c-2.721,0-4.928,2.207-4.928,4.928s2.207,4.928,4.928,4.928s4.928-2.207,4.928-4.928S27.721,45.072,25,45.072z M75,45.072  c-2.721,0-4.928,2.207-4.928,4.928s2.207,4.928,4.928,4.928s4.928-2.207,4.928-4.928S77.721,45.072,75,45.072z M12.5,20.072  c-2.721,0-4.928,2.207-4.928,4.928s2.207,4.928,4.928,4.928s4.928-2.207,4.928-4.928S15.221,20.072,12.5,20.072z M62.5,20.072  c-2.721,0-4.928,2.207-4.928,4.928s2.207,4.928,4.928,4.928s4.928-2.207,4.928-4.928S65.221,20.072,62.5,20.072z M37.5,20.072  c-2.721,0-4.928,2.207-4.928,4.928s2.207,4.928,4.928,4.928s4.928-2.207,4.928-4.928S40.221,20.072,37.5,20.072z M87.5,20.072  c-2.721,0-4.928,2.207-4.928,4.928s2.207,4.928,4.928,4.928s4.928-2.207,4.928-4.928S90.221,20.072,87.5,20.072z"/></svg>