<svg xmlns="http://www.w3.org/2000/svg" xmlns:xlink="http://www.w3.org/1999/xlink" version="1.1" x="0px" y="0px" viewBox="0 0 256 256" style="enable-background:new 0 0 256 256;" xml:space="preserve"><g><path d="M73.3,158c11.2,4.7,20.6,11.9,28.5,21.1c4.3,5,13.1,3.5,16.2-2.1c18.1-32.2,41-60.8,68.3-85.7c9.9-9-4.8-23.7-14.7-14.7   c-25.1,23-47,49.4-64.6,78.5c-8.3-7.3-17.8-12.8-28.2-16.9C66.6,133.2,61,153.2,73.3,158z"/></g><path d="M128,245c-6.2,0-12.3-2.3-17-7l-15.2-15.2c-2.6-2.6-8.3-5-12-5H62.3c-13.3,0-24.1-10.8-24.1-24.1v-21.5c0-3.7-2.4-9.4-5-12  L18,145c-4.5-4.5-7-10.6-7-17c0-6.4,2.5-12.5,7-17l15.2-15.2c2.6-2.6,5-8.3,5-12V62.3C38.2,49,49,38.2,62.3,38.2h21.5  c3.7,0,9.4-2.4,12-5L111,18c9.4-9.4,24.7-9.4,34.1,0l15.2,15.2c2.6,2.6,8.3,5,12,5h21.5c13.3,0,24.1,10.8,24.1,24.1v21.5  c0,3.7,2.4,9.4,5,12L238,111c9.4,9.4,9.4,24.7,0,34.1l-15.2,15.2c-2.6,2.6-5,8.3-5,12v21.5c0,13.3-10.8,24.1-24.1,24.1h-21.5  c-3.7,0-9.4,2.4-12,5L145,238C140.3,242.7,134.2,245,128,245z M62.3,49.2c-7.2,0-13.1,5.9-13.1,13.1v21.5c0,6.6-3.5,15.1-8.2,19.8  l-15.2,15.2c-2.5,2.5-3.8,5.7-3.8,9.3c0,3.5,1.4,6.8,3.8,9.3L41,152.5c4.7,4.7,8.2,13.2,8.2,19.8v21.5c0,7.2,5.9,13.1,13.1,13.1  h21.5c6.6,0,15.1,3.5,19.8,8.2l15.2,15.2c5.1,5.1,13.4,5.1,18.5,0l15.2-15.2c4.7-4.7,13.2-8.2,19.8-8.2h21.5  c7.2,0,13.1-5.9,13.1-13.1v-21.5c0-6.6,3.5-15.1,8.2-19.8l15.2-15.2c5.1-5.1,5.1-13.4,0-18.5L215,103.5c-4.7-4.7-8.2-13.2-8.2-19.8  V62.3c0-7.2-5.9-13.1-13.1-13.1h-21.5c-6.6,0-15.1-3.5-19.8-8.2l-15.2-15.2c-5.1-5.1-13.4-5.1-18.5,0L103.5,41  c-4.7,4.7-13.2,8.2-19.8,8.2H62.3z"/></svg>