<svg xmlns="http://www.w3.org/2000/svg" xmlns:xlink="http://www.w3.org/1999/xlink" version="1.1" x="0px" y="0px" viewBox="0 0 256 320" style="enable-background:new 0 0 256 256;" xml:space="preserve"><g><path d="M226.3,97.3c-3.9-3.9-7.1-11.6-7.1-17.2V56.9c0-11.1-9-20.1-20.1-20.1h-23.3c-5.5,0-13.3-3.2-17.2-7.1l-16.5-16.5   c-7.8-7.8-20.6-7.8-28.4,0L97.3,29.7c-3.9,3.9-11.6,7.1-17.2,7.1H56.9c-11.1,0-20.1,9-20.1,20.1v23.3c0,5.5-3.2,13.3-7.1,17.2   l-16.5,16.5c-7.8,7.8-7.8,20.6,0,28.4l16.5,16.5c3.9,3.9,7.1,11.6,7.1,17.2v23.3c0,11.1,9.1,20.1,20.1,20.1h23.3   c5.5,0,13.3,3.2,17.2,7.1l16.5,16.5c7.8,7.8,20.6,7.8,28.4,0l16.5-16.5c3.9-3.9,11.6-7.1,17.2-7.1h23.3c11.1,0,20.1-9.1,20.1-20.1   v-23.3c0-5.5,3.2-13.3,7.1-17.2l16.5-16.5c7.8-7.8,7.8-20.6,0-28.4L226.3,97.3z M181.9,98.3c-17.7,9.4-32.3,24.1-45.1,39.5   c-5.3,6.2-10.2,12.9-14.7,19.8c-1.8,2.5-3.3,5.1-4.8,7.8c-0.5,0.8-0.8,1.8-1.3,2.5c0,0.2,0,0.2,0,0.2s0,0.3,0,0.5   c-2.9,10.7-17.8,7.8-18.8-1.4c-0.2-0.2-0.2-0.3-0.3-0.5c-6.1-11.9-14.3-21.8-24.8-30.3c-4-3.2-3.3-10.2,0-13.5   c4-3.8,9.6-3.2,13.5,0c8.1,6.5,15.1,14.2,20.9,22.6c4.9-7.2,10.8-13.9,15.6-19.8c14-17,30.6-33.6,50-44   C183.1,76,192.7,92.6,181.9,98.3z"/></g><text x="0" y="271" fill="#000000" font-size="5px" font-weight="bold" font-family="'Helvetica Neue', Helvetica, Arial-Unicode, Arial, Sans-serif">Created by Shocho</text><text x="0" y="276" fill="#000000" font-size="5px" font-weight="bold" font-family="'Helvetica Neue', Helvetica, Arial-Unicode, Arial, Sans-serif">from the Noun Project</text></svg>