<svg xmlns="http://www.w3.org/2000/svg" xmlns:xlink="http://www.w3.org/1999/xlink" viewBox="0 0 64 64" version="1.1" x="0px" y="0px"><g stroke="none" stroke-width="1" fill="none" fill-rule="evenodd"><g><path d="M21.2851523,5.5 C20.2157582,11.6538232 15.2727325,16.4644046 9.07351077,17.352694 C7.96895703,27.1127093 8.75237936,35.4813467 11.4024963,42.4680186 C15.0579078,52.1050126 21.8572716,58.0606186 31.9340024,60.4452567 C42.5134937,56.988871 49.3580106,51.0085005 52.5975037,42.4680186 C54.9995896,36.1352468 55.6721195,27.7425186 54.5812004,17.2989837 C48.5359753,16.2835863 43.7633716,11.5308712 42.7149048,5.5 L21.2851523,5.5 Z" stroke="#FFF" stroke-width="3"/><path d="M32,16 L41,30.9677419 L32,37.6774194 L23,30.9677419 L32,16 Z M32,48 L23,32.516129 L32,39.2258065 L41,32.516129 L32,48 Z" fill="#FFF"/></g></g></svg>