<svg xmlns="http://www.w3.org/2000/svg" xmlns:xlink="http://www.w3.org/1999/xlink" viewBox="0 0 64 64" version="1.1" x="0px" y="0px"><g stroke="none" stroke-width="1" ><g><path d="M49.3252876,43.7340157 C49.1182484,43.369934 49,42.9487762 49,42.5 C49,41.1192881 50.1192881,40 51.5,40 C52.8807119,40 54,41.1192881 54,42.5 C54,43.8807119 52.8807119,45 51.5,45 C50.9333632,45 50.4107565,44.8114853 49.9914754,44.4937516 L43.7986525,48.5154178 C43.9282424,48.8175684 44,49.1504042 44,49.5 C44,50.8807119 42.8807119,52 41.5,52 C40.1192881,52 39,50.8807119 39,49.5 C39,49.1472804 39.0730457,48.8116216 39.2048352,48.5073255 L33.8175327,46.4393339 C33.4462099,47.3545593 32.5484803,48 31.5,48 C30.4999714,48 29.6370827,47.4128344 29.2372806,46.5644499 L23.8201734,49.5672015 C23.9361629,49.8554346 24,50.1702623 24,50.5 C24,51.8807119 22.8807119,53 21.5,53 C20.1192881,53 19,51.8807119 19,50.5 C19,50.3614908 19.011264,50.2256124 19.032926,50.093231 L14.9843303,47.5633876 L15.0458813,47.4648855 C14.6204779,47.8000354 14.083591,48 13.5,48 C12.1192881,48 11,46.8807119 11,45.5 C11,44.1192881 12.1192881,43 13.5,43 C14.8807119,43 16,44.1192881 16,45.5 C16,45.9735179 15.8683537,46.4162882 15.6396645,46.7937075 L19.3997968,49.1432989 C19.8451607,48.455283 20.6194118,48 21.5,48 C22.1896419,48 22.814063,48.2792435 23.2663626,48.7308298 L29.0005367,45.5523251 C29.0001795,45.5349265 29,45.5174842 29,45.5 C29,44.1192881 30.1192881,43 31.5,43 C32.8599657,43 33.9663049,44.0859047 33.9992448,45.4379416 L39.8017636,47.6653199 C40.2476536,47.252393 40.844352,47 41.5,47 C42.1704428,47 42.7792456,47.2639121 43.2281897,47.6935174 L49.3252876,43.7340157 Z"/><path d="M32,5 L41,19.9677419 L32,26.6774194 L23,19.9677419 L32,5 Z M32,37 L23,21.516129 L32,28.2258065 L41,21.516129 L32,37 Z"/></g></g></svg>