<svg xmlns="http://www.w3.org/2000/svg" xmlns:xlink="http://www.w3.org/1999/xlink" viewBox="0 0 64 64" version="1.1" x="0px" y="0px"><g stroke="none" stroke-width="1" fill-rule="evenodd"><g ><path d="M19.0380648,20 L9,20 L9,11.8292943 C7.83480763,11.4174579 7,10.3062188 7,9 C7,7.34314575 8.34314575,6 10,6 C11.6568542,6 13,7.34314575 13,9 C13,10.3062188 12.1651924,11.4174579 11,11.8292943 L11,18 L21.0449665,18 C23.765696,15.7049034 27.2168811,14.2483707 31,14.0289236 L31,7.82929429 C29.8348076,7.41745788 29,6.30621883 29,5 C29,3.34314575 30.3431458,2 32,2 C33.6568542,2 35,3.34314575 35,5 C35,6.30621883 34.1651924,7.41745788 33,7.82929429 L33,14.0289236 C36.1161342,14.2096809 39.0070605,15.2297671 41.4500632,16.8664664 L47.8649668,9.14802679 L47.8649668,9.14396795 L55.0356725,9.14396795 C55.4475089,7.97877558 56.558748,7.14396795 57.8649668,7.14396795 C59.5218211,7.14396795 60.8649668,8.4871137 60.8649668,10.143968 C60.8649668,11.8008222 59.5218211,13.143968 57.8649668,13.143968 C56.558748,13.143968 55.4475089,12.3091603 55.0356725,11.143968 L48.8682458,11.143968 L43.0486224,18.0795251 C46.2147066,20.7894799 48.3729716,24.6429127 48.8835937,29 L55.1707057,29 C55.5825421,27.8348076 56.6937812,27 58,27 C59.6568542,27 61,28.3431458 61,30 C61,31.6568542 59.6568542,33 58,33 C56.6937812,33 55.5825421,32.1651924 55.1707057,31 L49,31 C49,34.7377665 47.7937115,38.1937891 45.7492025,41 L57,41 L57,49.1707057 C58.1651924,49.5825421 59,50.6937812 59,52 C59,53.6568542 57.6568542,55 56,55 C54.3431458,55 53,53.6568542 53,52 C53,50.6937812 53.8348076,49.5825421 55,49.1707057 L55,43 L44.0415948,43 C41.1831848,45.868256 37.3066752,47.7212594 33,47.9710764 L33,51 L38,51 L38,56.1707057 C39.1651924,56.5825421 40,57.6937812 40,59 C40,60.6568542 38.6568542,62 37,62 C35.3431458,62 34,60.6568542 34,59 C34,57.6937812 34.8348076,56.5825421 36,56.1707057 L36,53 L31,53 L31,47.9710764 C27.4742404,47.7665579 24.2367889,46.4875425 21.6102424,44.456627 L15,50.003279 L15,56.1707057 C16.1651924,56.5825421 17,57.6937812 17,59 C17,60.6568542 15.6568542,62 14,62 C12.3431458,62 11,60.6568542 11,59 C11,57.6937812 11.8348076,56.5825421 13,56.1707057 L13,49 L13.0040588,49 L20.0790569,43.1198696 C16.9440241,40.0359744 15,35.7450128 15,31 L8.82929429,31 C8.41745788,32.1651924 7.30621883,33 6,33 C4.34314575,33 3,31.6568542 3,30 C3,28.3431458 4.34314575,27 6,27 C7.30621883,27 8.41745788,27.8348076 8.82929429,29 L15.1164063,29 C15.5161539,25.5889935 16.9257022,22.4866647 19.0380648,20 Z M21.801863,20 C18.848356,22.73949 17,26.6538917 17,31 C17,39.2842712 23.7157288,46 32,46 C40.2842712,46 47,39.2842712 47,31 C47,22.7157288 40.2842712,16 32,16 C28.1582278,16 24.6537825,17.4442678 22,19.8194675 L22,20 L21.801863,20 Z"/><path d="M32,21 L38,30.3548387 L32,34.5483871 L26,30.3548387 L32,21 Z M32,41 L26,31.3225806 L32,35.516129 L38,31.3225806 L32,41 Z"/></g></g></svg>