<svg xmlns="http://www.w3.org/2000/svg" xmlns:xlink="http://www.w3.org/1999/xlink" viewBox="0 0 64 80" version="1.1" x="0px" y="0px"><g stroke="none" stroke-width="1" fill-rule="evenodd"><g><path d="M29.8808437,62.0775354 C15.3453918,47.5715276 8,34.6766755 8,23.2808853 C8,10.4080609 18.7597657,0 32,0 C45.2402343,0 56,10.4080609 56,23.2808853 C56,34.6766722 48.6546124,47.5715203 34.1191688,62.077523 C32.9481096,63.2462102 31.0519751,63.2462216 29.8808437,62.0775354 Z M52,23.2808853 C52,12.6474929 43.0602947,4 32,4 C20.9397053,4 12,12.6474929 12,23.2808853 C12,33.2191206 18.6175186,45.006546 31.9999939,58.5366922 C45.3824932,45.0065251 52,33.2191118 52,23.2808853 Z" fill-rule="nonzero"/><path d="M32,13 L38,23.2903226 L32,27.9032258 L26,23.2903226 L32,13 Z M32,35 L26,24.3548387 L32,28.9677419 L38,24.3548387 L32,35 Z"/></g></g></svg>