<svg xmlns="http://www.w3.org/2000/svg" xmlns:xlink="http://www.w3.org/1999/xlink" viewBox="0 0 100 100" version="1.1" x="0px" y="0px"><g stroke="none" stroke-width="1" fill-rule="evenodd"><g fill-rule="nonzero"><path d="M34.3845584,46.144275 L35.995533,44.5333004 L35.995533,44.5333004 C36.9718437,43.5569897 36.9718437,41.9740772 35.995533,40.9977665 L35.995533,40.9977665 L35.995533,40.9977665 C35.0192223,40.0214558 33.4363098,40.0214558 32.4599991,40.9977665 L25.727766,47.7299995 L25.727766,47.7299995 C24.7514553,48.7063103 24.7514553,50.2892227 25.727766,51.2655334 L32.4599991,57.9977665 L32.4599991,57.9977665 C33.4363098,58.9740772 35.0192223,58.9740772 35.995533,57.9977665 L35.995533,57.9977665 L35.995533,57.9977665 C36.9718437,57.0214558 36.9718437,55.4385433 35.995533,54.4622326 L34.3847221,52.8514217 L34.3847221,52.8514217 C34.1894599,52.6561595 34.1894599,52.339577 34.3847221,52.1443149 C34.4785006,52.0505364 34.6056948,51.9978571 34.7383176,51.9978683 L65.2601344,52.000442 L65.2601344,52.000442 C65.5362768,52.0004653 65.7601155,52.2243418 65.7600922,52.5004842 C65.7600811,52.6330758 65.7074051,52.7602337 65.6136498,52.8539913 L64.0017694,54.4659097 L64.0018112,54.4659514 C63.0255282,55.4422573 63.0255282,57.0251376 64.0018112,58.0014436 L64.0024968,58.0022126 L64.002455,58.0022544 C64.9787542,58.9785766 66.5616667,58.9785953 67.5379889,58.0022961 C67.5380029,58.0022822 67.5380168,58.0022683 67.5380307,58.0022544 L74.2722548,51.2677878 L74.2722131,51.2677461 C75.248496,50.2914401 75.248496,48.7085599 74.2722131,47.7322539 L67.5379889,40.9977874 L67.5380307,40.9977456 C66.5617315,40.0214234 64.978819,40.0214047 64.0024968,40.9977039 C64.0024829,40.9977178 64.0024689,40.9977317 64.002455,40.9977456 L64.0017694,40.9985147 L64.0018112,40.9985564 C63.0255282,41.9748624 63.0255282,43.5577427 64.0018112,44.5340486 L65.6134861,46.145845 L65.6134861,46.145845 C65.8087459,46.3411095 65.8087422,46.657692 65.6134778,46.8529518 C65.5197036,46.9467237 65.392518,46.9994011 65.2599029,46.9993943 L34.7380861,46.9978284 L34.7380861,46.9978284 C34.4619437,46.9978143 34.2380976,46.7739451 34.2381118,46.4978028 C34.2381186,46.3652034 34.2907965,46.2380369 34.3845584,46.144275 Z"/></g></g></svg>