<svg xmlns="http://www.w3.org/2000/svg" xmlns:xlink="http://www.w3.org/1999/xlink" viewBox="0 0 100 70" style="background-color:#ffffff00;" version="1.1" xml:space="preserve" x="0px" y="0px"><g><path d="M 15.0364 50.4114 C 27.835 26.1598 44.2867 26.2101 50.0524 26.2101 C 57.0147 26.2101 72.0361 28.2216 85.0683 50.4111 C 79.2376 59.2581 71.7129 73.232 50.0524 73.232 C 29.4232 73.232 19.2609 59.0109 15.0364 50.4114 ZM 9.3077 50.9042 C 14.1984 60.7217 19.7611 67.096 25.2286 71.23 L 30.07 74.3643 C 38.6257 79.0408 46.3391 78.8996 50.0524 78.8996 C 56.7651 78.8996 76.6367 79.3685 90.8142 50.8693 L 93.4482 50.1385 C 94.5833 49.8234 95.2412 48.5889 94.9175 47.3808 L 94.8003 46.9434 C 94.4766 45.7355 93.294 45.0118 92.1588 45.3269 L 88.7857 46.2633 C 87.432 43.8685 86.0361 41.7018 84.6147 39.7415 L 88.3537 37.4972 C 89.4324 36.886 89.7811 35.4469 89.1275 34.3111 L 88.8938 33.905 C 88.2564 32.7976 86.9091 32.4281 85.8888 33.0525 L 81.694 35.7647 C 81.6438 35.7953 81.5949 35.8289 81.5483 35.8637 C 79.4162 33.3978 77.251 31.3424 75.0974 29.6284 L 78.0278 26.2248 C 78.9132 25.3723 78.8536 23.9116 77.914 23.0005 L 77.5814 22.6781 C 76.6838 21.8076 75.3155 21.7934 74.5073 22.612 L 71.3243 26.4424 C 71.2017 26.5667 71.0982 26.7068 71.0145 26.8574 L 69.6883 25.9804 C 66.4872 24.1826 63.5101 23.0481 60.7248 22.3324 L 61.6999 17.5916 C 62.0559 16.4471 61.3434 15.2407 60.1325 14.9054 L 59.7007 14.7857 C 58.5258 14.4602 57.3182 15.0917 56.9813 16.1881 L 55.9022 21.3261 L 55.8748 21.4204 C 53.5129 21.1327 51.45 21.1126 50.0524 21.1126 C 48.5558 21.1126 46.3049 21.1358 43.7099 21.4881 C 43.698 21.4338 43.6845 21.38 43.6679 21.3261 L 42.4889 16.1881 C 42.1519 15.0917 40.9445 14.4602 39.7695 14.7857 L 39.3376 14.9054 C 38.1268 15.2407 37.4142 16.4471 37.7702 17.5916 L 38.8857 22.4658 C 35.8117 23.3021 32.5033 24.6536 28.9763 26.8399 C 28.8943 26.6958 28.7935 26.562 28.6756 26.4424 L 25.5926 22.612 C 24.7844 21.7934 23.4161 21.8076 22.5185 22.6781 L 22.186 23.0005 C 21.2463 23.9116 20.8867 25.3723 21.7722 26.2248 L 24.9558 29.6787 C 22.8072 31.3919 20.6457 33.4476 18.5178 35.914 C 18.4512 35.8595 18.3803 35.8103 18.3059 35.7647 L 14.2111 33.0525 C 13.1908 32.4281 11.8435 32.7976 11.2061 33.905 L 10.9725 34.3111 C 10.3189 35.4469 10.6675 36.886 11.7463 37.4972 L 15.4621 39.7851 C 14.046 41.7412 12.6557 43.9022 11.3061 46.2895 L 7.8412 45.3269 C 6.7059 45.0118 5.5233 45.7355 5.1997 46.9434 L 5.0825 47.3808 C 4.7588 48.5889 5.4167 49.8234 6.5518 50.1385 L 9.3077 50.9042 ZM 67.3147 49.9613 C 67.3147 40.1293 59.5691 32.3346 49.9088 32.3346 C 42.2503 32.3346 33.8955 37.4718 32.59 48.3666 L 32.59 51.5555 C 32.59 52.5298 33.2863 55.187 33.4603 55.8072 C 36.5934 64.4875 43.7298 67.6763 49.9088 67.6763 C 59.6561 67.6763 67.3147 59.8816 67.3147 49.9613 ZM 62.441 49.9613 C 62.441 57.0472 56.6101 62.7161 49.9088 62.7161 C 42.9465 62.7161 37.4637 56.7815 37.4637 49.9613 C 37.4637 42.9635 43.2076 37.2946 49.9088 37.2946 C 56.7842 37.2946 62.441 43.1407 62.441 49.9613 Z" fill="#000000"/><path d="M 42.1428 42.1305 C 39.4057 44.8982 38.5109 48.4712 40.1441 50.1112 C 40.7222 50.6916 42.85 51.75 43.0987 50.3678 C 43.2759 49.3828 46.6173 43.668 50.4035 43.1892 C 51.9 43 50.6629 40.6984 50.0559 40.0888 C 48.4226 38.4488 44.8799 39.3629 42.1428 42.1305 Z" fill="#000000"/></g></svg>