<svg xmlns="http://www.w3.org/2000/svg" data-name="Layer 1" viewBox="0 0 100 100" x="0px" y="0px"><path d="M86.13,47.62a7.87,7.87,0,0,0-7.19,4.67L65,49.07a19.39,19.39,0,0,0-3.67-14.78L74,23.33a12.72,12.72,0,1,0-2-2.26L59.38,32a19.78,19.78,0,0,0-25.74-1.86L20.43,14.87a7.89,7.89,0,1,0-2.27,2L31.35,32.1a19.82,19.82,0,0,0,1.5,29.33l-9.2,13.16a13.12,13.12,0,1,0,2.45,1.73l9.22-13.18a19.7,19.7,0,0,0,20.14,0L68.72,82.25a5.88,5.88,0,1,0,2.46-1.71L57.93,61.46A19.85,19.85,0,0,0,64.34,52l13.92,3.22c0,.09,0,.18,0,.28a7.87,7.87,0,1,0,7.87-7.87Z"/></svg>