<svg xmlns="http://www.w3.org/2000/svg" xmlns:xlink="http://www.w3.org/1999/xlink" version="1.1" x="0px" y="0px" viewBox="0 0 100 100" style="enable-background:new 0 0 100 100;" xml:space="preserve"><rect width="100" height="100"/><path d="M90,19.2c-1.1-1.3-2.7-2.1-4.5-2.2c-3.6-0.3-6.7,2.5-7,6v0c-0.1,0.8,0,1.5,0.2,2.2L58.3,37c-0.8-1-1.7-1.8-2.7-2.5  c-1.6-1.1-3.3-1.7-5-1.9V21.8c1.5-0.4,2.8-1.3,3.7-2.6c2-3,1.2-7-1.7-9.1c-3-2-7-1.2-9.1,1.7c-2,3-1.2,7,1.7,9.1  c0.6,0.4,1.3,0.7,2,0.9v10.8c-3,0.4-5.7,1.9-7.7,4.4L21.3,26.5c0.3-1.3,0.1-2.8-0.5-4.1c-0.8-1.6-2.1-2.7-3.7-3.3  c-1.6-0.6-3.4-0.5-5,0.3c-1.6,0.8-2.7,2.1-3.3,3.7c-0.6,1.6-0.5,3.4,0.3,5c0.8,1.6,2.1,2.7,3.7,3.3c0.7,0.2,1.4,0.4,2.1,0.4  c1,0,1.9-0.2,2.8-0.7c0.8-0.4,1.5-1,2.1-1.6l18.1,10.4c-0.9,2.1-1.1,4.4-0.6,6.7c0.1,0.8,0.4,1.5,0.6,2.2l-10.4,6  c-1.1-1.1-2.6-1.8-4.2-1.9c-3.6-0.3-6.7,2.5-7,6c-0.1,1.7,0.4,3.4,1.6,4.7c1.1,1.3,2.7,2.1,4.5,2.2c0.2,0,0.3,0,0.5,0  c1.6,0,3.1-0.6,4.3-1.6c1.3-1.1,2.1-2.7,2.2-4.5v0c0.1-0.7,0-1.5-0.2-2.2l10.4-6c0.8,1,1.7,1.8,2.7,2.5c1.5,1,3.2,1.7,5,1.9v22  c-1.5,0.4-2.8,1.3-3.7,2.6c-2,3-1.2,7,1.7,9.1c1.1,0.8,2.4,1.1,3.7,1.1c2.1,0,4.2-1,5.4-2.9c2-3,1.2-7-1.7-9.1h0  c-0.6-0.4-1.3-0.7-2-0.9v-22c0.2,0,0.4-0.1,0.6-0.1c2.8-0.5,5.3-2.1,7.1-4.3l13.5,7.8c-0.4,1.5-0.3,3.1,0.4,4.6  c0.8,1.6,2.1,2.7,3.7,3.3c0.7,0.2,1.4,0.4,2.1,0.4c1,0,1.9-0.2,2.8-0.7c1.6-0.8,2.7-2.1,3.3-3.7c0.6-1.6,0.5-3.4-0.3-5  c-0.8-1.6-2.1-2.7-3.7-3.3c-1.6-0.6-3.4-0.5-5,0.3c-0.7,0.3-1.3,0.8-1.8,1.3L60,48.8c0.9-2.1,1.1-4.4,0.6-6.7  c-0.1-0.8-0.4-1.5-0.6-2.2l20.5-11.8c1.1,1.1,2.5,1.8,4.2,1.9c0.2,0,0.3,0,0.5,0c3.4,0,6.3-2.6,6.5-6.1C91.7,22.2,91.2,20.5,90,19.2  z M16.3,28.1c-0.8,0.4-1.6,0.4-2.4,0.1C13,28,12.4,27.4,12,26.6c-0.4-0.8-0.4-1.6-0.1-2.4c0.3-0.8,0.9-1.5,1.6-1.8  c0.4-0.2,0.9-0.3,1.4-0.3c0.4,0,0.7,0.1,1,0.2c0.8,0.3,1.5,0.9,1.8,1.6C18.5,25.4,17.9,27.4,16.3,28.1z M26,59.6L26,59.6  c-0.1,0.9-0.5,1.6-1.1,2.2c-0.6,0.6-1.5,0.8-2.3,0.8c-0.9-0.1-1.6-0.5-2.2-1.1c-0.6-0.6-0.8-1.5-0.8-2.3c0.1-1.7,1.5-3,3.2-3  c0.1,0,0.2,0,0.2,0c0.9,0.1,1.6,0.5,2.2,1.1C25.8,58,26.1,58.8,26,59.6z M46.3,13.7c0.5-0.7,1.2-1.2,2-1.3c0.8-0.2,1.7,0,2.4,0.5  c1.5,1,1.8,3,0.9,4.4c-1,1.5-3,1.8-4.4,0.9C45.7,17.2,45.3,15.2,46.3,13.7z M51.6,86.3c-1,1.5-3,1.8-4.4,0.9c-1.5-1-1.8-3-0.9-4.4  c0.5-0.7,1.2-1.2,2-1.3c0.2,0,0.4-0.1,0.6-0.1c0.6,0,1.3,0.2,1.8,0.6h0C52.2,82.8,52.6,84.8,51.6,86.3z M50.5,52.8  c-2.2,0.4-4.5,0-6.4-1.3c-1.9-1.3-3.2-3.2-3.6-5.5c-0.4-2.2,0-4.5,1.3-6.4c1.7-2.4,4.4-3.8,7.1-3.8c1.7,0,3.3,0.5,4.8,1.5  c1.9,1.3,3.2,3.2,3.6,5.5c0.4,2.2,0,4.5-1.3,6.4C54.7,51,52.8,52.3,50.5,52.8z M76.7,58.3c0.4-0.2,0.9-0.3,1.4-0.3  c0.4,0,0.7,0.1,1,0.2c0.8,0.3,1.5,0.9,1.8,1.6c0.4,0.8,0.4,1.6,0.1,2.4c-0.3,0.8-0.9,1.5-1.6,1.8c-0.8,0.4-1.6,0.4-2.4,0.1  c-0.8-0.3-1.5-0.9-1.8-1.6c-0.4-0.8-0.4-1.6-0.1-2.4C75.4,59.3,75.9,58.7,76.7,58.3z M88.3,23.7c-0.1,1.8-1.7,3.1-3.4,3  c-1.8-0.1-3.1-1.7-3-3.4v0c0.1-1.8,1.7-3.1,3.4-3c0.9,0.1,1.6,0.5,2.2,1.1C88.1,22,88.4,22.8,88.3,23.7z"/></svg>