<svg xmlns="http://www.w3.org/2000/svg" xmlns:xlink="http://www.w3.org/1999/xlink" version="1.1" x="0px" y="0px" viewBox="0 0 100 100" style="enable-background:new 0 0 100 100;" xml:space="preserve"><path d="M78.9,71.2l3.5,2l0.1-0.2c4.9-6.8,7.5-14.9,7.5-23.4c0.1-10.9-4-21.1-11.6-28.7C70.8,13.2,60.7,9,49.8,9  C27.6,9,9.4,27.1,9.4,49.4s18.1,40.4,40.4,40.4c3.9,0,7.6-0.5,11.1-1.6l0.2-0.1l-0.8-4l-0.3,0.1c-3.4,1-6.9,1.6-10.4,1.6  c-20,0-36.3-16.3-36.3-36.3c0-20,16.3-36.3,36.3-36.3s36.3,16.3,36.3,36.3c0,7.7-2.4,15.1-7,21.5L78.9,71.2z"/><path d="M84,15.7C74.9,6.6,62.7,1.5,49.8,1.5c-4.5,0-8.8,0.6-12.9,1.8l-0.2,0.1l0.7,3.7L37.7,7  c4-1.1,8.1-1.7,12.1-1.7c24.5,0,44.5,19.9,44.5,44.5S74.3,94.2,49.8,94.2C25.3,94.1,5.4,74.1,5.4,49.7c0-9.3,2.8-18.1,8.2-25.7  l0.2-0.2l-3.3-1.9l-0.1,0.2c-5.7,8.1-8.8,17.7-8.8,27.7c0,26.5,21.6,48.1,48.1,48.1C76.3,97.9,98,76.3,98,49.8  C98,36.9,93.1,24.8,84,15.7z"/><rect x="46" y="28.6" width="7.5" height="27.2"/><rect x="46.1" y="61.8" width="7.5" height="6.6"/></svg>