<svg xmlns:svg="http://www.w3.org/2000/svg" xmlns="http://www.w3.org/2000/svg" version="1.1" x="0px" y="0px" viewBox="0 0 100 100"><g transform="translate(0,-952.36218)"><path style="text-indent:0;text-transform:none;direction:ltr;block-progression:tb;baseline-shift:baseline;color:#000000;enable-background:accumulate;" d="m 16.000002,969.36217 c -2.209099,0 -3.999999,1.79079 -3.999999,4 0,2.2092 1.7909,4 3.999999,4 l 68,0 c 2.209095,0 3.999995,-1.7908 3.999995,-4 0,-2.20921 -1.7909,-4 -3.999995,-4 l -68,0 z m 0,29 c -2.209099,0 -3.999999,1.79083 -3.999999,4.00003 0,2.2092 1.7909,4 3.999999,4 l 68,0 c 2.209095,0 3.999995,-1.7908 3.999995,-4 0,-2.2092 -1.7909,-4.00003 -3.999995,-4.00003 l -68,0 z m 0,29.00003 c -2.209099,0 -3.999999,1.7908 -3.999999,4 0,2.2092 1.7909,4 3.999999,4 l 68,0 c 2.209095,0 3.999995,-1.7908 3.999995,-4 0,-2.2092 -1.7909,-4 -3.999995,-4 l -68,0 z" fill-opacity="1" marker="none" visibility="visible" display="inline" overflow="visible"/></g></svg>