<svg xmlns="http://www.w3.org/2000/svg" data-name="Layer 1" viewBox="0 0 100 100" x="0px" y="0px"><path d="M65,28A21.88,21.88,0,0,0,50,34H27.52v2H48.06a22.13,22.13,0,0,0-3.33,5.5H33.52v2H44a21.7,21.7,0,0,0-1,5.5H30.52v2H43.05a21.7,21.7,0,0,0,1,5.5H35v2h9.71a22.11,22.11,0,0,0,4.7,7H20v2H51.71A22,22,0,1,0,65,28Zm0,42A20,20,0,1,1,85,50,20,20,0,0,1,65,70Z"/><path d="M81.58,46.13a1,1,0,0,0,1,.78.91.91,0,0,0,.23,0,1,1,0,0,0,.75-1.2c0-.15-.07-.29-.11-.43a1,1,0,0,0-1-.75,1.07,1.07,0,0,0-.25,0,1,1,0,0,0-.72,1.22C81.52,45.87,81.55,46,81.58,46.13Z"/><path d="M53.7,37.33l.11-.1h.07l.12-.1a1,1,0,0,0-1.3-1.52l-.34.29a1,1,0,0,0-.08,1.41,1,1,0,0,0,.75.34A1,1,0,0,0,53.7,37.33Z"/><path d="M54.71,63.51h-.05l-.2-.16a1,1,0,0,0-.62-.21,1,1,0,0,0-.78.37,1,1,0,0,0,.16,1.41l.35.27a1,1,0,0,0,.6.21A1,1,0,0,0,55,65a1,1,0,0,0-.19-1.4Z"/><path d="M58.77,34.19l.36-.14h0a1,1,0,0,0-.35-1.94,1.07,1.07,0,0,0-.35.06l-.42.16a1,1,0,0,0,.37,1.93A.94.94,0,0,0,58.77,34.19Z"/><path d="M60.09,66.27l-.07,0H60l-.11,0h-.13a1.12,1.12,0,0,0-.31-.05,1,1,0,0,0-.31,2l.42.14a1.55,1.55,0,0,0,.29,0,1,1,0,0,0,.29-2Z"/><path d="M47.05,48.56h.14a1,1,0,0,0,1-.86c0-.14,0-.27,0-.4a1,1,0,0,0-.83-1.14l-.15,0a1,1,0,0,0-1,.85c0,.14,0,.29-.07.44A1,1,0,0,0,47.05,48.56Z"/><path d="M50.72,59.18h0l-.1-.16h0l-.06-.11a1,1,0,0,0-.86-.48,1,1,0,0,0-.52.15,1,1,0,0,0-.33,1.37l.24.38a1,1,0,0,0,1.38.3,1,1,0,0,0,.3-1.38Z"/><path d="M48.35,53.35h0v0a1,1,0,0,0-1-.81l-.19,0a1,1,0,0,0-.79,1.17l.09.44a1,1,0,0,0,1,.79.83.83,0,0,0,.22,0,1,1,0,0,0,.76-1.19C48.4,53.57,48.38,53.46,48.35,53.35Z"/><path d="M50,42l.19-.36a1,1,0,0,0-.38-1.36,1.05,1.05,0,0,0-.49-.13,1,1,0,0,0-.87.51l-.21.4a1,1,0,0,0,.88,1.47A1,1,0,0,0,50,42Z"/><path d="M80.6,40.94a1,1,0,0,0,.28-1.39c-.08-.12-.16-.25-.25-.37a1,1,0,0,0-.82-.43A1,1,0,0,0,79,40.32l.09.14h0l.12.17a1,1,0,0,0,1.38.29Z"/><path d="M81.64,57a1,1,0,0,0-.43-.1,1,1,0,0,0-.9.56l0,.08h0l-.09.19h0l0,0A1,1,0,0,0,81,59.26a1,1,0,0,0,.89-.54c.07-.14.14-.27.2-.4A1,1,0,0,0,81.64,57Z"/><path d="M64.75,33H65a1,1,0,0,0,0-2h-.44a1,1,0,0,0,0,2h.15Z"/><path d="M83,50.8h-.1a1,1,0,0,0-1,.9v.06h0a1.1,1.1,0,0,0,0,.18h0v.09a1,1,0,0,0,.87,1.11h.13a1,1,0,0,0,1-.88c0-.15,0-.3.05-.44A1,1,0,0,0,83,50.8Z"/><path d="M77.48,62a1,1,0,0,0-.69.28h-.15l-.08.07h0l0,0a1,1,0,0,0,.68,1.74,1.05,1.05,0,0,0,.68-.26l.32-.31a1,1,0,0,0,0-1.41A1,1,0,0,0,77.48,62Z"/><path d="M66.08,67h-.46a1,1,0,0,0,0,2h0l.45,0a1,1,0,0,0-.06-2Z"/><path d="M70.32,31.75l-.43-.12-.26,0a1,1,0,0,0-.26,2h.09l.2,0h0l.06,0a.9.9,0,0,0,.28,0,1,1,0,0,0,.28-2Z"/><path d="M72.23,65.49a1,1,0,0,0-.41.09h0l-.18.08h0l-.12.06a1,1,0,0,0,.38,1.92,1.06,1.06,0,0,0,.38-.07l.41-.18a1,1,0,0,0-.4-1.92Z"/><path d="M76.3,34.71l-.37-.26a1,1,0,0,0-1.15,1.64h0l.31.22a1,1,0,0,0,1.4-.21A1,1,0,0,0,76.3,34.71Z"/><rect x="21.52" y="34" width="3" height="2"/><rect x="29.02" y="56.5" width="3" height="2"/><rect x="23.02" y="56.5" width="3" height="2"/><rect x="14.02" y="65.5" width="3" height="2"/><rect x="27.52" y="41.5" width="3" height="2"/><rect x="15.52" y="34" width="3" height="2"/></svg>